<svg width="88" height="87" viewBox="0 0 88 87" fill="none" xmlns="http://www.w3.org/2000/svg">
<g clip-path="url(#clip0)">
<path d="M67.3602 14.4199C67.3979 14.4226 67.4357 14.4254 67.4741 14.4254C67.5392 14.4254 67.6044 14.4199 67.6682 14.4109C69.3758 14.446 70.7424 15.8428 70.7444 17.5554C70.7444 18.3336 71.3735 18.9646 72.1495 18.9646C72.9254 18.9646 73.5545 18.3336 73.5545 17.5554C73.551 14.7543 71.6068 12.3309 68.8791 11.7281V10.374C68.8791 9.5958 68.25 8.96484 67.4741 8.96484C66.6982 8.96484 66.0691 9.5958 66.0691 10.374V11.7921C63.1849 12.5655 61.3189 15.3639 61.7079 18.3329C62.0969 21.3019 64.6201 23.5216 67.6058 23.5216C69.3394 23.5216 70.7444 24.9315 70.7444 26.6702C70.7444 28.4083 69.3394 29.8182 67.6058 29.8182C65.8722 29.8182 64.4671 28.4083 64.4671 26.6702C64.4671 25.892 63.838 25.2611 63.0621 25.2611C62.2862 25.2611 61.6571 25.892 61.6571 26.6702C61.6605 29.3702 63.469 31.7324 66.0691 32.4335V33.9775C66.0691 34.7557 66.6982 35.3867 67.4741 35.3867C68.25 35.3867 68.8791 34.7557 68.8791 33.9775V32.4982C71.8462 31.8466 73.8474 29.0572 73.5202 26.0283C73.1936 22.9994 70.6436 20.704 67.6058 20.7047C65.9202 20.7054 64.5351 19.3705 64.4685 17.6813C64.4027 15.9921 65.6794 14.552 67.3602 14.4205V14.4199Z" fill="#B4B4B4"/>
<path d="M67.686 2.0752C59.0426 2.0752 51.6663 7.73181 48.9029 15.3061H14.0307C13.2582 15.3061 12.6312 16.0045 12.6257 16.7785L12.2936 66.2122H2.35356C1.57765 66.2122 0.911499 66.7757 0.911499 67.5553V73.8284C0.929336 79.7341 5.56698 84.5857 11.4491 84.8526V84.8836H54.8289V84.8423C55.1802 84.8554 55.3249 84.8836 55.5472 84.8836H55.5774C61.6653 84.874 66.5959 79.9213 66.5959 73.8153V42.0981C66.9472 42.1174 67.319 42.1277 67.6826 42.1277C78.6819 42.1277 87.6327 33.1333 87.6327 22.1008C87.6327 11.0689 78.686 2.0752 67.686 2.0752ZM11.9835 82.0653H11.9746C7.42959 82.0591 3.74211 78.3731 3.72153 73.814V69.0305H44.4669V73.794C44.469 76.7348 45.6401 79.5538 47.7202 81.627C47.8677 81.7749 48.0508 81.8891 48.2052 82.0653H11.9835ZM63.7859 73.814C63.7866 78.3648 60.1128 82.0563 55.576 82.0653H55.5493C50.9939 82.057 47.2996 78.3635 47.277 73.7954V67.5553C47.2886 67.1947 47.1514 66.8459 46.8969 66.5913C46.6424 66.3367 46.2946 66.1998 45.9358 66.2122H15.1037L15.4261 18.1244H48.1229C47.8738 19.4145 47.7449 20.7246 47.738 22.0381C47.7352 24.8159 48.3129 27.5626 49.4339 30.1023H36.1631C35.3865 30.1023 34.7581 30.7333 34.7581 31.5115C34.7581 32.2897 35.3865 32.9206 36.1631 32.9206H50.9583C53.8568 37.4922 58.4903 40.6793 63.7859 41.7458V73.814ZM67.686 39.31C58.2214 39.31 50.548 31.6147 50.5487 22.1214C50.5487 12.6281 58.2214 4.93275 67.6867 4.93275C77.1514 4.93275 84.8241 12.6288 84.8241 22.1214C84.8138 31.6099 77.1472 39.2997 67.686 39.31Z" fill="#B4B4B4"/>
<path d="M27.1443 39.4805C24.6643 39.4805 22.6473 41.4394 22.6473 43.8477C22.6473 46.2559 24.6643 48.2148 27.1443 48.2148C29.6244 48.2148 31.642 46.2559 31.642 43.8477C31.642 41.4394 29.6244 39.4805 27.1443 39.4805ZM27.1443 45.3965C26.2134 45.3965 25.4574 44.7015 25.4574 43.8477C25.4574 42.9931 26.2141 42.2988 27.1443 42.2988C28.0746 42.2988 28.832 42.9938 28.832 43.8477C28.832 44.7015 28.0746 45.3965 27.1443 45.3965Z" fill="#B4B4B4"/>
<path d="M34.7581 43.8418C34.7581 44.62 35.3865 45.2509 36.1631 45.2509H54.8948C55.6707 45.2509 56.2998 44.62 56.2998 43.8418C56.2998 43.0636 55.6707 42.4326 54.8948 42.4326H36.1631C35.3865 42.4326 34.7581 43.0636 34.7581 43.8418Z" fill="#B4B4B4"/>
<path d="M27.1443 27.231C24.6643 27.231 22.6473 29.1906 22.6473 31.5988C22.6473 34.0071 24.6643 35.966 27.1443 35.966C29.6244 35.966 31.642 34.0071 31.642 31.5988C31.642 29.1906 29.6244 27.231 27.1443 27.231ZM27.1443 33.1477C26.2134 33.1477 25.4574 32.4527 25.4574 31.5988C25.4574 30.7449 26.2141 30.0493 27.1443 30.0493C28.0746 30.0493 28.832 30.7442 28.832 31.5988C28.832 32.4527 28.0746 33.1484 27.1443 33.1484V33.1477Z" fill="#B4B4B4"/>
<path d="M27.1443 51.729C24.6643 51.729 22.6473 53.6879 22.6473 56.0962C22.6473 58.5044 24.6643 60.4634 27.1443 60.4634C29.6244 60.4634 31.642 58.5044 31.642 56.0962C31.642 53.6879 29.6244 51.729 27.1443 51.729ZM27.1443 57.645C26.2134 57.645 25.4574 56.9508 25.4574 56.0962C25.4574 55.2423 26.2141 54.5473 27.1443 54.5473C28.0746 54.5473 28.832 55.2423 28.832 56.0962C28.832 56.9501 28.0746 57.645 27.1443 57.645Z" fill="#B4B4B4"/>
<path d="M54.8948 54.7627H36.1631C35.3865 54.7627 34.7581 55.3937 34.7581 56.1719C34.7581 56.9501 35.3865 57.581 36.1631 57.581H54.8948C55.6707 57.581 56.2998 56.9501 56.2998 56.1719C56.2998 55.3937 55.6707 54.7627 54.8948 54.7627Z" fill="#B4B4B4"/>
</g>
<defs>
<clipPath id="clip0">
<rect x="0.911499" width="86.721" height="86.9772" fill="white"/>
</clipPath>
</defs>
</svg>
