<svg width="88" height="87" viewBox="0 0 88 87" fill="none" xmlns="http://www.w3.org/2000/svg">
<g clip-path="url(#clip0)">
<path d="M74.1248 29.0645C74.1239 29.0645 74.1228 29.0645 74.1219 29.0645H1.69021C1.00537 29.0637 0.449455 29.6199 0.448731 30.3068C0.448731 30.3077 0.448731 30.3088 0.448731 30.3097V65.1837C0.448007 65.8707 1.00247 66.4283 1.68731 66.429C1.68822 66.429 1.68931 66.429 1.69021 66.429H50.9438C51.6293 66.429 52.1853 65.8714 52.1853 65.1837C52.1853 64.4961 51.6293 63.9384 50.9438 63.9384H2.93169V31.555H72.8805V34.669C72.8797 35.3559 73.4342 35.9136 74.119 35.9143C74.1199 35.9143 74.121 35.9143 74.1219 35.9143C74.8068 35.915 75.3627 35.3588 75.3634 34.6719C75.3634 34.671 75.3634 34.6699 75.3634 34.669V30.3097C75.3641 29.6228 74.8097 29.0654 74.1248 29.0645Z" fill="#B4B4B4"/>
<path d="M65.7024 23.2832L7.75707 10.2054C7.43547 10.1333 7.09848 10.1918 6.8198 10.3682C6.54148 10.546 6.34465 10.827 6.27222 11.1499L3.37495 24.2277C3.2261 24.8994 3.64838 25.5649 4.31801 25.7142C4.98764 25.8635 5.65111 25.4399 5.79996 24.7682L8.42634 12.9096L65.1578 25.7127C65.2476 25.7336 65.3394 25.744 65.4316 25.7432C66.1171 25.742 66.6719 25.1834 66.6709 24.4958C66.6698 23.9143 66.2678 23.4112 65.7024 23.2832Z" fill="#B4B4B4"/>
<path d="M58.6663 16.0775L23.8991 1.54663C23.2948 1.29398 22.5986 1.55353 22.3056 2.14094L19.4083 7.95327C19.0811 8.5603 19.3064 9.31863 19.9117 9.64684C20.5169 9.97506 21.2729 9.7491 21.6001 9.1419C21.613 9.1181 21.6251 9.09376 21.6363 9.06906V9.07197L24.0136 4.30004L57.7073 18.3819C58.3418 18.6474 59.0709 18.347 59.3356 17.7105C59.6003 17.0745 59.3008 16.3432 58.6663 16.0775Z" fill="#B4B4B4"/>
<path d="M59.5443 34.877H48.0465C47.361 34.877 46.8051 35.4346 46.8051 36.1222C46.8051 36.8099 47.361 37.3675 48.0465 37.3675H59.5443C60.2299 37.3675 60.7858 36.8099 60.7858 36.1222C60.7858 35.4346 60.2299 34.877 59.5443 34.877Z" fill="#B4B4B4"/>
<path d="M36.4573 34.9595C29.4168 34.9595 23.7094 40.6844 23.7094 47.7466C23.7166 54.8057 29.4199 60.5265 36.4573 60.5338C43.4979 60.5338 49.2053 54.8088 49.2053 47.7466C49.2053 40.6844 43.4979 34.9595 36.4573 34.9595ZM36.4573 58.2088C30.6968 58.2088 26.0272 53.5248 26.0272 47.7466C26.0335 41.9711 30.6996 37.2908 36.4573 37.2844C42.2178 37.2844 46.8875 41.9684 46.8875 47.7466C46.8875 53.5248 42.2178 58.2088 36.4573 58.2088Z" fill="#B4B4B4"/>
<path d="M71.2248 39.0283C63.547 39.0283 55.2898 40.8476 55.2898 44.8407V79.7146C55.2898 83.7077 63.547 85.527 71.2248 85.527C78.9025 85.527 87.1598 83.7077 87.1598 79.7146V44.8407C87.1598 40.8476 78.9025 39.0283 71.2248 39.0283ZM84.2625 79.6928C84.0437 80.4993 79.6993 82.6208 71.2248 82.6208C62.7503 82.6208 58.4058 80.4993 58.1871 79.7146V77.4304C61.2698 78.9881 66.3617 79.7146 71.2248 79.7146C76.0878 79.7146 81.1812 78.9808 84.2625 77.4289V79.6928ZM84.2625 73.8805C84.0437 74.687 79.6993 76.8085 71.2248 76.8085C62.7503 76.8085 58.4058 74.687 58.1871 73.9023V71.6181C61.2698 73.1758 66.3617 73.9023 71.2248 73.9023C76.0878 73.9023 81.1812 73.1685 84.2625 71.6166V73.8805ZM84.2625 68.0682C84.0437 68.8746 79.6993 70.9961 71.2248 70.9961C62.7503 70.9961 58.4058 68.8746 58.1871 68.09V65.8057C61.2698 67.3634 66.3617 68.09 71.2248 68.09C76.0878 68.09 81.1812 67.3562 84.2625 65.8043V68.0682ZM84.2625 62.2558C84.0437 63.0623 79.6993 65.1838 71.2248 65.1838C62.7503 65.1838 58.4058 63.0623 58.1871 62.2776V59.9934C61.2698 61.5511 66.3617 62.2776 71.2248 62.2776C76.0878 62.2776 81.1812 61.5438 84.2625 59.9919V62.2558ZM84.2625 56.4435C84.0437 57.25 79.6993 59.3715 71.2248 59.3715C62.7503 59.3715 58.4058 57.25 58.1871 56.4653V54.1811C61.2698 55.7315 66.3617 56.4653 71.2248 56.4653C76.0878 56.4653 81.1812 55.7315 84.2625 54.1796V56.4435ZM84.2625 50.6312C84.0437 51.4376 79.6993 53.5591 71.2248 53.5591C62.7503 53.5591 58.4058 51.4376 58.1871 50.653V48.3687C61.2698 49.9192 66.3617 50.653 71.2248 50.653C76.0878 50.653 81.1812 49.9192 84.2625 48.3673V50.6312ZM71.2248 47.7468C62.7633 47.7468 58.4203 45.6311 58.1871 44.8668V44.8581C58.4203 44.0487 62.7633 41.9345 71.2248 41.9345C79.6269 41.9345 83.9728 44.0182 84.2625 44.8407C83.9728 45.6631 79.6269 47.7468 71.2248 47.7468Z" fill="#B4B4B4"/>
<path d="M24.8685 58.1249H13.9183L8.72635 52.4288V42.9837L14.46 37.3675H24.8685C25.5541 37.3675 26.11 36.8099 26.11 36.1223C26.11 35.4346 25.5541 34.877 24.8685 34.877H13.9559C13.6314 34.8762 13.3194 35.003 13.0867 35.2301L6.61569 41.5611C6.37395 41.8445 6.2414 42.2054 6.24195 42.5783V52.9126C6.24195 53.2234 6.35765 53.5229 6.56644 53.7525L12.4522 60.21C12.6875 60.4683 13.0203 60.6156 13.3692 60.6154H24.8685C25.5541 60.6154 26.11 60.0578 26.11 59.3701C26.11 58.6825 25.5542 58.1249 24.8685 58.1249Z" fill="#B4B4B4"/>
<path d="M37.1818 46.2938H35.7332C35.2826 46.2938 35.0088 46.041 35.0088 45.9305C35.0088 45.8201 35.2826 45.5672 35.7332 45.5672H39.3547C40.1548 45.5672 40.8034 44.9166 40.8034 44.1142C40.8034 43.3117 40.1548 42.6611 39.3547 42.6611H37.9061C37.9061 41.8586 37.2575 41.208 36.4575 41.208C35.6575 41.208 35.0088 41.8586 35.0088 42.6611V42.7265C33.4021 42.9541 32.1849 44.2973 32.1116 45.9233C32.2153 47.8284 33.8331 49.2922 35.7332 49.1999H37.1818C37.6323 49.1999 37.9061 49.4528 37.9061 49.5632C37.9061 49.6736 37.6323 49.9265 37.1818 49.9265H33.5602C32.7602 49.9265 32.1116 50.5771 32.1116 51.3796C32.1116 52.182 32.7602 52.8326 33.5602 52.8326H35.0088C35.0088 53.6351 35.6575 54.2857 36.4575 54.2857C37.2575 54.2857 37.9061 53.6351 37.9061 52.8326V52.7673C39.5128 52.5397 40.73 51.1965 40.8034 49.5705C40.6996 47.6653 39.0819 46.2015 37.1818 46.2938Z" fill="#B4B4B4"/>
</g>
<defs>
<clipPath id="clip0">
<rect x="0.44873" width="86.7109" height="86.9772" fill="white"/>
</clipPath>
</defs>
</svg>
