<svg width="87" height="87" viewBox="0 0 87 87" fill="none" xmlns="http://www.w3.org/2000/svg">
<g clip-path="url(#clip0)">
<path d="M62.7346 0H21.0425C17.9745 0 15.4786 2.49595 15.4786 5.56392V22.9683H18.0262V16.0226H65.7509V72.1722H18.0262V25.5158H15.4786V81.4361C15.4786 84.5039 17.9745 87 21.0425 87H62.7346C65.8025 87 68.2985 84.504 68.2985 81.4361V5.56392C68.2985 2.49595 65.8025 0 62.7346 0V0ZM65.7509 81.4361C65.7509 83.0993 64.3978 84.4524 62.7346 84.4524H21.0425C19.3793 84.4524 18.0262 83.0993 18.0262 81.4361V74.7206H65.7509V81.4361ZM18.0262 13.4742V5.56392C18.0262 3.90069 19.3793 2.54758 21.0425 2.54758H62.7346C64.3978 2.54758 65.7509 3.90069 65.7509 5.56392V13.4742H18.0262Z" fill="url(#paint0_linear)"/>
<path d="M40.6033 78.3125H43.1738V80.8601H40.6033V78.3125Z" fill="url(#paint1_linear)"/>
<path d="M55.2104 42.8823L57.7552 42.7655C57.3722 34.4152 50.4708 27.6167 41.8885 27.6167C33.1304 27.6167 26.0052 34.742 26.0052 43.5C26.0052 52.2581 33.1304 59.3834 41.8885 59.3834C49.8552 59.3834 56.6278 53.4293 57.6426 45.534L55.1158 45.2093C54.264 51.8374 48.5775 56.8358 41.8885 56.8358C34.5352 56.8358 28.5528 50.8534 28.5528 43.5C28.5528 36.1467 34.5352 30.1643 41.8885 30.1643C49.0318 30.1643 54.8834 35.7508 55.2104 42.8823Z" fill="url(#paint2_linear)"/>
<path d="M47.2236 39.4926C47.2236 36.8939 45.4582 34.8296 43.1623 34.2649V32.4385H40.6147V34.2649C38.286 34.8376 36.5533 36.9424 36.5533 39.4452V40.1009C36.5533 42.4702 38.3263 44.4318 40.6147 44.7324V50.0312C39.731 49.5749 39.1009 48.6635 39.1009 47.5074H36.5533C36.5533 50.1063 38.3188 52.1704 40.6147 52.7351V54.5615H43.1623V52.7351C45.491 52.1624 47.2236 50.0576 47.2236 47.5548V46.8991C47.2236 44.5298 45.4507 42.5682 43.1623 42.2676V36.9688C44.046 37.4251 44.6761 38.3365 44.6761 39.4926H47.2236ZM39.1009 40.1011V39.4454C39.1009 38.3674 39.7171 37.4323 40.6147 36.9688V42.1358C39.7402 41.8724 39.1009 41.0604 39.1009 40.1011ZM44.6761 46.8991V47.5548C44.6761 48.6328 44.0599 49.5679 43.1623 50.0314V44.8644C44.0368 45.1278 44.6761 45.9398 44.6761 46.8991Z" fill="url(#paint3_linear)"/>
<path d="M50.7202 9.28489H48.1726V6.7373H50.7202V9.28489ZM43.0774 9.28489H40.5298V6.7373H43.0774V9.28489ZM35.4347 9.28489H32.8871V6.7373H35.4347V9.28489Z" fill="url(#paint4_linear)"/>
</g>
<defs>
<linearGradient id="paint0_linear" x1="17.7553" y1="87" x2="77.0502" y2="80.5584" gradientUnits="userSpaceOnUse">
<stop stop-color="#F4BA5B"/>
<stop offset="0.997443" stop-color="#FB4D4F"/>
</linearGradient>
<linearGradient id="paint1_linear" x1="40.7141" y1="80.8601" x2="43.5416" y2="80.3496" gradientUnits="userSpaceOnUse">
<stop stop-color="#F4BA5B"/>
<stop offset="0.997443" stop-color="#FB4D4F"/>
</linearGradient>
<linearGradient id="paint2_linear" x1="27.3737" y1="59.3834" x2="62.3188" y2="53.1337" gradientUnits="userSpaceOnUse">
<stop stop-color="#F4BA5B"/>
<stop offset="0.997443" stop-color="#FB4D4F"/>
</linearGradient>
<linearGradient id="paint3_linear" x1="37.0133" y1="54.5615" x2="49.0434" y2="53.5233" gradientUnits="userSpaceOnUse">
<stop stop-color="#F4BA5B"/>
<stop offset="0.997443" stop-color="#FB4D4F"/>
</linearGradient>
<linearGradient id="paint4_linear" x1="33.6558" y1="9.28489" x2="41.5406" y2="-0.591347" gradientUnits="userSpaceOnUse">
<stop stop-color="#F4BA5B"/>
<stop offset="0.997443" stop-color="#FB4D4F"/>
</linearGradient>
<clipPath id="clip0">
<rect width="87" height="87" transform="matrix(-1 0 0 1 87.0001 0)" fill="white"/>
</clipPath>
</defs>
</svg>
