<svg width="88" height="87" viewBox="0 0 88 87" fill="none" xmlns="http://www.w3.org/2000/svg">
<g clip-path="url(#clip0)">
<path d="M83.1407 43.8534V31.6289C83.1407 27.4837 79.9352 24.1126 75.8853 23.7857L64.5675 3.95671C63.5187 2.1228 61.8251 0.81205 59.7986 0.267772C57.7816 -0.2728 55.6725 0.011107 53.8673 1.06501L15.0692 23.722H8.25506C3.9077 23.722 0.372314 27.268 0.372314 31.6289V79.0702C0.372314 83.431 3.90751 86.9772 8.25506 86.9772H75.2579C79.6053 86.9772 83.1407 83.4311 83.1407 79.0702V66.8458C85.4295 66.027 87.0819 63.8534 87.0819 61.2797V49.4194C87.0819 46.8457 85.4295 44.6721 83.1407 43.8534ZM71.3055 23.722H54.1291L67.0116 16.1988L71.3055 23.722ZM65.0534 12.768L46.2959 23.722H38.5155L63.108 9.35983L65.0534 12.768ZM55.8514 4.48171C56.7424 3.95856 57.7835 3.81957 58.7786 4.08606C59.7851 4.35625 60.6242 5.00876 61.1458 5.92182L61.1498 5.92904L30.6826 23.722H22.9026L55.8514 4.48171ZM79.1992 79.0702C79.1992 81.2496 77.4306 83.0236 75.2579 83.0236H8.25506C6.08239 83.0236 4.31378 81.2496 4.31378 79.0702V31.6289C4.31378 29.4496 6.08239 27.6755 8.25506 27.6755H75.2579C77.4306 27.6755 79.1992 29.4496 79.1992 31.6289V43.4892H67.3752C60.855 43.4892 55.5512 48.8093 55.5512 55.3496C55.5512 61.8898 60.855 67.2099 67.3752 67.2099H79.1992V79.0702ZM83.1407 61.2797C83.1407 62.3703 82.2574 63.2565 81.1699 63.2565H67.3752C63.0278 63.2565 59.4924 59.7105 59.4924 55.3496C59.4924 50.9889 63.0276 47.4426 67.3752 47.4426H81.1699C82.2572 47.4426 83.1407 48.3286 83.1407 49.4194V61.2797Z" fill="#B4B4B4"/>
<path d="M67.3749 51.3965C65.2022 51.3965 63.4336 53.1705 63.4336 55.3499C63.4336 57.5292 65.2022 59.3032 67.3749 59.3032C69.5475 59.3032 71.3162 57.5292 71.3162 55.3499C71.3163 53.1705 69.5477 51.3965 67.3749 51.3965Z" fill="#B4B4B4"/>
</g>
<defs>
<clipPath id="clip0">
<rect x="0.37146" width="86.7109" height="86.9772" fill="white"/>
</clipPath>
</defs>
</svg>
